<mxfile host="app.diagrams.net" agent="Mozilla/5.0 (Windows NT 10.0; Win64; x64) AppleWebKit/537.36 (KHTML, like Gecko) Chrome/130.0.0.0 Safari/537.36" version="24.8.3">
  <diagram name="Page-1" id="vz_-r42pBUv3-nEK2oyf">
    <mxGraphModel dx="2160" dy="1336" grid="0" gridSize="10" guides="1" tooltips="1" connect="1" arrows="1" fold="1" page="0" pageScale="1" pageWidth="3300" pageHeight="4681" math="0" shadow="0">
      <root>
        <mxCell id="0" />
        <mxCell id="1" parent="0" />
        <mxCell id="7Wg_Ma-EGqi592KVDbhQ-8" value="" style="rounded=0;whiteSpace=wrap;html=1;" vertex="1" parent="1">
          <mxGeometry x="-160" y="-3" width="1327" height="843" as="geometry" />
        </mxCell>
        <mxCell id="7Wg_Ma-EGqi592KVDbhQ-9" value="&lt;font style=&quot;font-size: 18px;&quot;&gt;Diagramme de contexte&lt;/font&gt;" style="shape=umlFrame;whiteSpace=wrap;html=1;pointerEvents=0;recursiveResize=0;container=1;collapsible=0;width=210;height=38;" vertex="1" parent="1">
          <mxGeometry x="-109" y="39" width="1249" height="767" as="geometry" />
        </mxCell>
        <mxCell id="7Wg_Ma-EGqi592KVDbhQ-10" value="&lt;font style=&quot;font-size: 19px;&quot;&gt;AppWeb&lt;/font&gt;" style="shape=umlActor;verticalLabelPosition=bottom;verticalAlign=top;html=1;outlineConnect=0;" vertex="1" parent="7Wg_Ma-EGqi592KVDbhQ-9">
          <mxGeometry x="77" y="351" width="79" height="129" as="geometry" />
        </mxCell>
        <mxCell id="7Wg_Ma-EGqi592KVDbhQ-12" value="&lt;font style=&quot;font-size: 17px;&quot;&gt;Serveur de Messagerie&lt;/font&gt;" style="shape=umlActor;verticalLabelPosition=bottom;verticalAlign=top;html=1;" vertex="1" parent="7Wg_Ma-EGqi592KVDbhQ-9">
          <mxGeometry x="1104" y="314" width="61" height="141" as="geometry" />
        </mxCell>
        <mxCell id="7Wg_Ma-EGqi592KVDbhQ-13" value="" style="whiteSpace=wrap;html=1;aspect=fixed;" vertex="1" parent="7Wg_Ma-EGqi592KVDbhQ-9">
          <mxGeometry x="370" y="171" width="551" height="551" as="geometry" />
        </mxCell>
        <mxCell id="7Wg_Ma-EGqi592KVDbhQ-14" style="edgeStyle=none;curved=1;rounded=0;orthogonalLoop=1;jettySize=auto;html=1;entryX=0;entryY=0.5;entryDx=0;entryDy=0;fontSize=12;startSize=8;endSize=8;" edge="1" parent="7Wg_Ma-EGqi592KVDbhQ-9" source="7Wg_Ma-EGqi592KVDbhQ-10" target="7Wg_Ma-EGqi592KVDbhQ-13">
          <mxGeometry relative="1" as="geometry" />
        </mxCell>
        <mxCell id="7Wg_Ma-EGqi592KVDbhQ-15" style="edgeStyle=none;curved=1;rounded=0;orthogonalLoop=1;jettySize=auto;html=1;entryX=0.997;entryY=0.465;entryDx=0;entryDy=0;entryPerimeter=0;fontSize=12;startSize=8;endSize=8;" edge="1" parent="7Wg_Ma-EGqi592KVDbhQ-9" source="7Wg_Ma-EGqi592KVDbhQ-12" target="7Wg_Ma-EGqi592KVDbhQ-13">
          <mxGeometry relative="1" as="geometry" />
        </mxCell>
      </root>
    </mxGraphModel>
  </diagram>
</mxfile>
